<svg width="106" height="106" viewBox="0 0 106 106" fill="none" xmlns="http://www.w3.org/2000/svg">
<circle cx="53" cy="53" r="52.5" fill="#FFCC00" stroke="#F2C94C"/>
<circle cx="52.9371" cy="52.9371" r="50.734" fill="#25095C" stroke="#F2C94C"/>
<g clip-path="url(#clip0_1279_10281)">
<path d="M76.8232 61.1717V66.3835C76.7748 69.6242 71.6961 69.6242 71.6719 66.3835V61.1717C71.6719 59.6965 72.9899 58.6202 74.3805 58.717C75.7349 58.717 76.8232 59.8174 76.8232 61.1717Z" fill="#FCB910"/>
<path d="M45.1595 87.784H40.5523C39.2947 87.784 38.1339 87.2762 37.2874 86.3451C36.4289 85.426 36.0177 84.2289 36.1265 82.9713L37.5655 65.4375L42.4508 66.284L45.1595 87.784Z" fill="#FCB910"/>
<path d="M44.2223 65.3695L37.7287 64.2449C36.0358 63.9547 34.5847 62.9268 33.7383 61.4274C32.8918 59.9279 32.7709 58.1504 33.3876 56.5542L34.1736 54.5469C36.6283 54.9459 43.3758 56.0584 45.7338 56.4454C51.6349 57.582 50.1717 66.2159 44.2223 65.3695Z" fill="#FCB910"/>
<path d="M72.3031 87.7838H46.3773L43.6928 66.5014C51.3835 67.9767 53.6205 56.7792 45.9299 55.2435C45.9178 55.2435 37.9489 53.9254 37.8643 53.9254L33.8859 53.2725L33.6078 53.2241C31.2256 52.8855 29.3392 50.6605 29.3755 48.2421C29.3755 45.4608 31.6368 43.1875 34.418 43.1875C36.9453 43.2117 57.9738 43.1754 61.0452 43.1996C66.2207 43.127 70.8883 47.0933 71.6622 52.1963L72.6054 57.8554C71.3478 58.4238 70.4651 59.6935 70.4651 61.1687V66.3805C70.4651 68.4967 72.2789 70.1654 74.383 70.0324C74.4556 70.0324 74.5281 70.0082 74.6007 70.0082L76.6805 82.6204C77.1763 85.2324 74.9634 87.8443 72.3031 87.7838Z" fill="#FCB910"/>
<path d="M76.0686 39.2474C76.0686 42.742 74.2064 45.9223 71.2196 47.6757C69.0551 44.1568 65.2218 41.9802 61.05 41.9802H57.1562C60.3123 39.3925 61.8601 35.0514 60.8686 31.0609C67.1687 26.6956 76.2137 31.6051 76.0686 39.2474Z" fill="#FCB910"/>
<g clip-path="url(#clip1_1279_10281)">
<path d="M75.5281 40.1105L68.7179 30.3711C68.6139 30.2223 68.5902 30.0319 68.6546 29.8621C69.6404 27.2595 73.1964 24.6262 73.7293 24.2425C73.75 24.2273 73.7712 24.2121 73.7924 24.1973C74.0405 24.0239 74.3822 24.084 74.5561 24.3318L74.5568 24.3327C74.7299 24.5803 74.6703 24.9216 74.4232 25.0958C74.4202 25.0979 74.3937 25.1166 74.3474 25.1505C73.0953 26.085 72.8032 27.8579 73.7047 29.1471C74.6236 30.4613 76.4405 30.7829 77.7547 29.8639C78.0032 29.6902 78.3454 29.7509 78.519 29.9992L79.2415 31.0324C79.4152 31.2808 79.3546 31.623 79.1062 31.7967C77.792 32.7157 77.4705 34.5326 78.3894 35.8469C79.2917 37.1373 81.0595 37.4708 82.3674 36.6126C82.4129 36.582 82.4383 36.5646 82.4412 36.5626C82.6897 36.3902 83.0306 36.4513 83.2038 36.699L83.2044 36.6998C83.3774 36.9482 83.3166 37.2898 83.0685 37.4633C83.0472 37.4782 83.0258 37.4928 83.0044 37.5073C82.4611 37.8759 78.7672 40.3121 75.9843 40.3448C75.8029 40.3469 75.6321 40.2592 75.5281 40.1105Z" fill="#FFF780"/>
<path d="M83.2068 36.6995C83.2067 36.6992 83.2065 36.699 83.2063 36.6987C83.0331 36.451 82.6921 36.3899 82.4437 36.5622C82.4407 36.5643 82.4154 36.5818 82.3698 36.6123C81.062 37.4703 79.2942 37.1369 78.3919 35.8465C77.4729 34.5323 77.7945 32.7154 79.1087 31.7964C79.3572 31.6227 79.4176 31.2805 79.244 31.0322L78.8828 30.5156L72.1257 35.2405L75.5307 40.1101C75.6347 40.2589 75.8055 40.3465 75.9869 40.3444C78.7698 40.3118 82.4638 37.8756 83.007 37.5068C83.0284 37.4926 83.0499 37.4779 83.0711 37.4631C83.3191 37.2895 83.3798 36.9479 83.2068 36.6995Z" fill="#FFC02E"/>
<path d="M80.4146 29.4455C79.8543 28.6441 78.7465 28.4481 77.9452 29.0084C77.1438 29.5687 76.9479 30.6764 77.5082 31.4777C78.0685 32.2791 79.1762 32.4752 79.9775 31.9149C80.7789 31.3546 80.9749 30.2468 80.4146 29.4455Z" fill="#FFC02E"/>
<path d="M80.4141 29.4453L77.5075 31.4777C78.068 32.2789 79.1756 32.475 79.9769 31.9147C80.7782 31.3543 80.9742 30.2466 80.4141 29.4453Z" fill="#FFA73B"/>
<path d="M74.9693 24.047C74.409 23.2457 73.3012 23.0496 72.4999 23.6099C71.6985 24.1703 71.5025 25.2781 72.0628 26.0794C72.6231 26.8807 73.7308 27.0767 74.5321 26.5164C75.3335 25.956 75.5296 24.8483 74.9693 24.047Z" fill="#FFC02E"/>
<path d="M83.6177 36.4141C83.0573 35.6128 81.9496 35.4168 81.1483 35.9771C80.3471 36.5374 80.1509 37.6451 80.7112 38.4464C81.2716 39.2477 82.3794 39.4438 83.1806 38.8835C83.9819 38.3232 84.178 37.2154 83.6177 36.4141Z" fill="#FFA73B"/>
<path d="M74.0524 41.1447L67.2422 31.4053C67.0685 31.1569 67.129 30.8147 67.3775 30.641L68.7188 29.7031L76.158 40.3421L74.8167 41.28C74.5683 41.4537 74.2261 41.3931 74.0524 41.1447Z" fill="#FFC02E"/>
<path d="M70.6464 36.2758L74.0515 41.1454C74.2252 41.3938 74.5673 41.4544 74.8157 41.2807L76.157 40.3428L72.4375 35.0234L70.6464 36.2758Z" fill="#FFA73B"/>
</g>
<path d="M55.0522 41.9854H45.2212C42.1981 40.2441 40.3359 37.0154 40.3359 33.5087C40.5657 22.0935 56.4066 20.0016 59.611 30.933C60.8082 35.1048 58.8734 39.8813 55.0522 41.9854Z" fill="#FCB910"/>
<g clip-path="url(#clip2_1279_10281)">
<path d="M56.075 26.2454H44.1907C44.0092 26.2454 43.8395 26.1556 43.7373 26.0056C42.1693 23.7062 42.049 19.2831 42.0399 18.6265C42.0393 18.6007 42.0391 18.5747 42.0391 18.5488C42.0391 18.2461 42.2842 18.0006 42.5869 18H42.588C42.8902 18 43.1357 18.2444 43.1369 18.5467C43.1369 18.5504 43.137 18.5828 43.1383 18.6403C43.1866 20.2019 44.4721 21.4572 46.0452 21.4572C47.6489 21.4572 48.9536 20.1525 48.9536 18.5488C48.9536 18.2457 49.1994 18 49.5024 18H50.7631C51.0663 18 51.312 18.2457 51.312 18.5488C51.312 20.1525 52.6168 21.4572 54.2205 21.4572C55.795 21.4572 57.0813 20.1996 57.1276 18.636C57.1285 18.5811 57.1288 18.5504 57.1288 18.5468C57.13 18.2444 57.3754 18 57.6777 18H57.6787C57.9814 18.0006 58.2265 18.2461 58.2265 18.5488C58.2265 18.5748 58.2262 18.6007 58.2258 18.6266C58.2165 19.2831 58.0962 23.7064 56.5284 26.0058C56.4262 26.1556 56.2564 26.2454 56.075 26.2454Z" fill="#FFF780"/>
<path d="M57.6785 18C57.6782 18 57.6779 18 57.6775 18C57.3753 18 57.1298 18.2444 57.1287 18.5467C57.1287 18.5504 57.1285 18.5811 57.1274 18.636C57.0812 20.1994 55.7948 21.4572 54.2203 21.4572C52.6166 21.4572 51.3119 20.1525 51.3119 18.5488C51.3119 18.2457 51.0661 18 50.7631 18H50.1328V26.2452H56.0748C56.2564 26.2452 56.426 26.1555 56.5282 26.0056C58.0962 23.7062 58.2165 19.2829 58.2256 18.6265C58.2262 18.6007 58.2265 18.5747 58.2265 18.5488C58.2263 18.2461 57.9812 18.0006 57.6785 18Z" fill="#FFC02E"/>
<path d="M50.1327 16.1328C49.1549 16.1328 48.3594 16.9283 48.3594 17.9061C48.3594 18.8839 49.1549 19.6793 50.1327 19.6793C51.1105 19.6793 51.906 18.8839 51.906 17.9061C51.906 16.9283 51.1105 16.1328 50.1327 16.1328Z" fill="#FFC02E"/>
<path d="M50.1328 16.1328V19.6794C51.1106 19.6793 51.906 18.8839 51.906 17.9061C51.906 16.9283 51.1105 16.133 50.1328 16.1328Z" fill="#FFA73B"/>
<path d="M42.5858 17.5C41.608 17.5 40.8125 18.2955 40.8125 19.2733C40.8125 20.2511 41.608 21.0466 42.5858 21.0466C43.5636 21.0466 44.359 20.2511 44.359 19.2733C44.359 18.2955 43.5636 17.5 42.5858 17.5Z" fill="#FFC02E"/>
<path d="M57.6716 17.5C56.6938 17.5 55.8984 18.2955 55.8984 19.2733C55.8984 20.251 56.6938 21.0465 57.6716 21.0465C58.6494 21.0465 59.4449 20.251 59.4449 19.2733C59.4449 18.2955 58.6494 17.5 57.6716 17.5Z" fill="#FFA73B"/>
<path d="M56.0737 28.0449H44.1895C43.8863 28.0449 43.6406 27.7992 43.6406 27.496V25.8594H56.6225V27.496C56.6225 27.7992 56.3768 28.0449 56.0737 28.0449Z" fill="#FFC02E"/>
<path d="M50.1328 28.0449H56.0748C56.3779 28.0449 56.6236 27.7992 56.6236 27.496V25.8594H50.1328V28.0449Z" fill="#FFA73B"/>
</g>
</g>
<path d="M63.9446 81.9686L63.9447 81.9687L85.4515 87.1296C87.7643 87.685 89.8698 88.8907 91.5192 90.6044C93.0012 92.1441 94.0594 94.036 94.5974 96.0959L53.5107 89.7749C53.5678 88.6417 53.8522 87.53 54.3486 86.5065C54.9072 85.3547 55.7198 84.3445 56.7252 83.5519C57.7305 82.7594 58.9025 82.2052 60.153 81.9309C61.4034 81.6567 62.6998 81.6696 63.9446 81.9686Z" fill="#57B7EB" stroke="#F2C94C"/>
<path d="M52.4893 89.7749L11.4026 96.0959C11.9406 94.036 12.9988 92.1441 14.4808 90.6044C16.1302 88.8907 18.2357 87.685 20.5485 87.1296L42.0553 81.9687L42.0554 81.9686C43.3002 81.6696 44.5966 81.6567 45.847 81.9309C47.0975 82.2052 48.2695 82.7594 49.2748 83.5519C50.2802 84.3445 51.0928 85.3547 51.6514 86.5065C52.1478 87.53 52.4322 88.6417 52.4893 89.7749Z" fill="#57B7EB" stroke="#F2C94C"/>
<path d="M91.2691 95.5848L53.5119 89.7762C53.5413 89.2206 53.6252 88.669 53.7626 88.1294C54.7555 86.8981 56.0747 85.9697 57.5705 85.4509C59.0986 84.9209 60.7468 84.8406 62.3192 85.2197L62.3197 85.2198L83.8259 90.3806C83.8261 90.3807 83.8262 90.3807 83.8264 90.3807C85.5086 90.7871 87.0876 91.5395 88.4628 92.5901C89.5593 93.4277 90.507 94.4402 91.2691 95.5848Z" fill="#4891D3" stroke="#F2C94C"/>
<path d="M43.6822 85.2198L43.6827 85.2197C45.2551 84.8406 46.9033 84.9209 48.4314 85.4509C49.9271 85.9697 51.2463 86.8981 52.2393 88.1294C52.3767 88.669 52.4606 89.2206 52.49 89.7762L14.7328 95.5848C15.4948 94.4402 16.4426 93.4277 17.539 92.5901C18.9143 91.5395 20.4934 90.787 22.1756 90.3807C22.1757 90.3807 22.1759 90.3806 22.176 90.3806L43.6822 85.2198Z" fill="#4891D3" stroke="#F2C94C"/>
<path d="M99.625 102.624L62.7534 97.1608C62.7534 97.1608 62.7534 97.1608 62.7534 97.1608C61.8851 97.0321 60.9992 97.092 60.1561 97.3366C59.313 97.5812 58.5326 98.0046 57.8679 98.5781C57.2033 99.1515 56.67 99.8615 56.3046 100.66C56.0087 101.306 55.8284 101.997 55.7705 102.703H50.2295C50.1716 101.997 49.9913 101.306 49.6954 100.66C49.33 99.8615 48.7967 99.1515 48.1321 98.5781C47.4674 98.0046 46.687 97.5812 45.8439 97.3366C45.0008 97.092 44.1149 97.0321 43.2466 97.1608C43.2466 97.1608 43.2466 97.1608 43.2466 97.1608L6.375 102.624V97.1243L53 89.0855L99.625 97.1243V102.624Z" fill="#F9E109" stroke="#F2C94C"/>
<path d="M99.625 102.624L62.7534 97.1608C62.7534 97.1608 62.7534 97.1608 62.7534 97.1608C61.8851 97.0321 60.9992 97.092 60.1561 97.3366C59.313 97.5812 58.5326 98.0046 57.8679 98.5781C57.2033 99.1515 56.67 99.8615 56.3046 100.66C56.0087 101.306 55.8284 101.997 55.7705 102.703H50.2295C50.1716 101.997 49.9913 101.306 49.6954 100.66C49.33 99.8615 48.7967 99.1515 48.1321 98.5781C47.4674 98.0046 46.687 97.5812 45.8439 97.3366C45.0008 97.092 44.1149 97.0321 43.2466 97.1608C43.2466 97.1608 43.2466 97.1608 43.2466 97.1608L6.375 102.624V100.374L53 92.3355L99.625 100.374V102.624Z" fill="#FCBC04" stroke="#F2C94C"/>
<defs>
<clipPath id="clip0_1279_10281">
<rect width="77.3906" height="77.3906" fill="white" transform="translate(14.4062 16.0312)"/>
</clipPath>
<clipPath id="clip1_1279_10281">
<rect width="18.6362" height="18.6362" fill="white" transform="translate(77.8203 19.8906) rotate(55.0371)"/>
</clipPath>
<clipPath id="clip2_1279_10281">
<rect width="18.6362" height="18.6362" fill="white" transform="translate(40.8125 12.7812)"/>
</clipPath>
</defs>
</svg>
